<?xml version="1.0"?>
<svg xmlns="http://www.w3.org/2000/svg" width="217" height="28" viewBox="-0.903 -0.428 217 28">
<path fill="#FF0000" d="M23.413,5.855h5.037v7.899h5.107V5.428h5.113v20.969h-5.038v-8.361h-4.501l-0.719,0.464v7.934h-5.033 L23.413,5.855z M16.983,11.324c-0.928-6.47-5.642-6.071-5.642-6.071c-6.9,0.714-5.93,9.211-5.93,9.211 c0.283,8.4,5.854,8.149,5.854,8.149c5.753-0.325,5.502-6.184,5.502-6.184h5.284c-0.033,6.358-4.962,9.327-4.962,9.327 c-3.571,2.252-7.858,1.569-7.858,1.569c-5.719-0.894-7.968-6.717-7.968-6.717C-1.379,13.36,0.944,7.788,0.944,7.788 C3.833,0.068,11.444,0,11.444,0c4.322,0.143,7.04,2.821,7.04,2.821c4.252,3.785,3.713,8.469,3.713,8.469L16.983,11.324z  M47.849,12.961l-1.535,6.076l1.535,0.041h1.534L47.849,12.961z M47.849,23.29l-2.143-0.034l-0.86,3.106h-5.572L44.88,5.888h2.968 h3.036l5.391,20.475h-5.707l-0.648-3.036L47.849,23.29z M90.54,5.855h4.997v7.753h5.005V5.888h5.149v20.509h-5.149v-8.395h-5.182 v7.932H90.54V5.855z M84.073,12.785c-0.679-2.786-2.568-2.569-2.568-2.569c-2.863-0.145-3.146,5.033-3.146,5.033 c-0.216,6.935,3.212,6.538,3.212,6.538c2.577-0.102,2.787-2.709,2.787-2.709H82v-4.219h7.182v11.398h-4.249l0.033-1.183 c-1.001,1.465-4.249,1.57-4.249,1.57c-8.508-0.355-7.434-12.358-7.434-12.358c0.826-9.322,8.002-9.108,8.002-9.108 c8.001,0.536,7.431,7.606,7.431,7.606H84.073z M56.994,5.855h5.355l4.72,10.219V5.818l5.213,0.07v20.475h-5.213l-5.037-10.79 v10.824h-5.039V5.855z M117.294,8.073l-1.889,5.288c0,0-0.146,0.783-1.61,1.216l-4.86,1.639l5.79,2.434 c0,0,0.75,0.354,0.784,1.141l1.785,5.109l1.896-5.109c0,0,0.355-1.182,2.073-1.504l4.392-1.749l-5.108-2.105 c0,0-1.141-0.394-1.426-2.002l-1.574-5.037L117.294,8.073z M117.294,27.077c-1.068-0.07-5.965-0.681-8.86-4.572 c0,0-2.069-2.355-1.995-7.753c0,0,0.858-9.361,10.855-9.967c0,0,10.543,0.569,10.895,11.144c0,0,0.359,10.045-10.678,11.182 L117.294,27.077z M128.799,5.785h5.113l5.142,10.861V5.888h4.856v20.475h-4.751l-5.247-10.613v10.647l-5.007-0.034L128.799,5.785z  M155.486,12.464c-0.217-2.607-2.43-2.5-2.43-2.5c-3.68,0.36-3.323,5.964-3.323,5.964c0.108,5.681,3.467,5.718,3.467,5.718 c2.392-0.037,2.754-2.645,2.754-2.645l-2.294-0.034v-4.286l7.075-0.071L160.7,25.934h-4.18v-1.75 c-0.534,2.001-4.356,2.285-4.356,2.285c-7.753-0.245-7.617-10.72-7.617-10.72c0.937-11.998,8.903-10.714,8.903-10.714 c6.786,0.608,6.894,7.43,6.894,7.43H155.486z M162.846,13.36h3.428l0.077-7.254h5.354V8.18h9.719l1.286-1.574h4.93l-2.501,4.896 h-13.326v1.891h15.896v3.539h-7.077l2.503,5.718l4.755-0.075v3.359h-8.72l-4.074-8.933l-3.283-0.036l-0.037,5.685h3.783v3.497 l-8.678,0.077c0,0-0.429-0.145-0.357-1.073v-7.969h-3.678V13.36z M194.068,25.757h-3.927l0.068-3.219l3.858,0.036h0.429v-3.249 l-0.429-0.038l-4.036-0.069V9.253h4.036h0.321V6.036h4.394v3.106h0.395h2.461h1.327L203,6.036h12.108v3.176h-3.535v13.223h3.715 v3.321h-13.649h-2.461H194.068z M194.068,12.643c-0.183,0-0.36,0.111-0.572,0.468v2.07c0,0,0.176,0.68,0.572,0.643 c0.038,0,0.571,0.072,0.571-0.677V13.11C194.64,13.11,194.39,12.679,194.068,12.643z M199.178,21.686 c0.464,0.212,0.887,0.352,1.03,0.49c0.49,0.708,0.858,1.872,1.231,2.697c0.468-0.962,0.988-2.116,1.311-2.335 c0.533-0.427,3.318,0.111,3.569-0.354c0.325-0.574,0.143-2.323,0.143-3.075c0-3.285,0.107-6.466,0.107-9.681h-3.144v6.72 c0,0.854,0.107,2.067-0.179,2.82c-0.067,0.182-0.513,0.37-0.723,0.37l-0.891-2.692c-0.382,0.908-0.724,2.007-1.239,3.145 c-0.868,0.457-2.055,0.67-3.145,1.032C197.498,20.968,198.431,21.323,199.178,21.686z M199.178,15.749 c0.283,0.037,0.464-0.248,0.464-0.248v-2.569c-0.181-0.22-0.321-0.289-0.464-0.289c-0.283,0-0.465,0.289-0.465,0.289l0.033,2.532 C198.895,15.681,199.033,15.749,199.178,15.749z M201.508,18.044l0.652,1.562c0.1,0.579,0.513,0.722,0.513,0.722l1.837,0.759 l-1.579,0.625c-0.581,0.201-0.742,0.541-0.742,0.541l-0.681,1.834l-0.646-1.834c-0.068-0.186-0.104-0.34-0.284-0.414l-2.076-0.87 l1.745-0.59c0.524-0.15,0.581-0.437,0.581-0.437L201.508,18.044z"/>
</svg>